<?xml version="1.0" standalone="no"?>
<!DOCTYPE svg PUBLIC "-//W3C//DTD SVG 20010904//EN"
 "http://www.w3.org/TR/2001/REC-SVG-20010904/DTD/svg10.dtd">
<svg version="1.0" xmlns="http://www.w3.org/2000/svg"
 width="500.000000pt" height="500.000000pt" viewBox="0 0 500.000000 500.000000"
 preserveAspectRatio="xMidYMid meet">
<metadata>
Created by potrace 1.14, written by Peter Selinger 2001-2017
</metadata>
<g transform="translate(0.000000,500.000000) scale(0.100000,-0.100000)"
fill="#000000" stroke="none">
<path d="M3865 4348 c-60 -4 -130 -12 -155 -19 -25 -6 -56 -13 -70 -15 -84
-15 -278 -102 -384 -173 -128 -84 -231 -192 -284 -296 -50 -100 -65 -165 -67
-305 l-3 -136 -54 -79 c-30 -44 -66 -100 -79 -125 -13 -25 -28 -52 -35 -60
-20 -27 -92 -203 -119 -292 l-27 -88 -43 84 c-23 46 -52 98 -64 115 -20 27
-21 37 -14 113 28 316 -38 519 -225 692 -128 119 -359 236 -557 282 -165 38
-265 48 -460 48 -191 -1 -283 -12 -455 -54 -171 -42 -296 -96 -430 -184 -83
-54 -213 -180 -247 -238 l-22 -38 37 0 c295 -2 453 -105 681 -445 145 -216
190 -275 271 -355 183 -183 414 -271 710 -273 120 0 158 3 223 21 154 44 288
130 362 235 39 56 37 57 80 -58 59 -155 69 -252 69 -655 1 -237 -6 -418 -20
-520 -9 -76 -36 -210 -43 -214 -3 -2 -58 -7 -121 -10 -63 -4 -128 -8 -145 -10
-16 -2 -68 -7 -115 -11 -47 -4 -87 -8 -90 -10 -3 -2 -30 -6 -60 -9 -56 -6
-143 -22 -280 -50 -63 -12 -155 -39 -300 -86 -128 -41 -270 -136 -308 -205
-32 -59 -13 -152 40 -190 22 -15 96 -40 148 -49 14 -2 41 -7 60 -10 114 -20
502 -30 1225 -30 567 0 1012 7 1150 19 229 19 232 20 335 41 131 28 179 64
187 138 13 110 -117 215 -368 300 -57 19 -133 42 -169 51 -36 9 -81 20 -100
25 -19 5 -55 12 -80 15 -24 4 -47 8 -51 10 -3 2 -30 7 -60 10 -30 3 -61 8 -69
10 -15 4 -70 11 -170 20 -30 2 -75 7 -100 10 -25 3 -85 7 -134 10 -49 3 -90 6
-92 8 -1 1 -5 34 -8 72 -3 39 -13 122 -21 185 -26 197 -29 257 -30 540 0 461
11 563 84 788 35 105 79 206 123 279 l32 52 29 -52 c101 -177 314 -278 553
-263 318 20 506 142 715 461 157 240 190 284 260 349 104 96 199 135 343 139
36 1 66 7 66 12 0 6 -15 33 -34 60 -160 238 -459 394 -786 411 -58 3 -109 7
-115 8 -5 1 -59 -2 -120 -6z"/>
</g>
</svg>
